# xmcd CD database file
#
# Track frame offsets:
#	150
#	13196
#	28414
#	36769
#	47841
#	62795
#	72820
#	84803
#	98859
#	109613
#	118249
#	129746
#
# Disc length: 1912 seconds
#
# Revision: 1
# Processed by: cddbd v1.5.1PL2 Copyright (c) Steve Scherf et al.
# Submitted via: CDex 1.51
#
DISCID=a407760c
DTITLE=J.J.Cale - Really
DYEAR=1972
DGENRE=Blues
TTITLE0=LIES
TTITLE1=EVERYTHING WILL BE ALLRIGHT
TTITLE2=I'LL KISS THE WORLD GOODBYE
TTITLE3=CHANGES
TTITLE4=RIGHT DOWN HERE
TTITLE5=IF YOU'RE EVER IN OKLAHOMA
TTITLE6=RIDIN' HOME
TTITLE7=GOING DOWN
TTITLE8=SOULIN'
TTITLE9=PLAYING IN THE STREET
TTITLE10=MO JO
TTITLE11=LOUISIANA WOMEN
EXTD=YEAR: 1972
EXTT0=
EXTT1=
EXTT2=
EXTT3=
EXTT4=
EXTT5=
EXTT6=
EXTT7=
EXTT8=
EXTT9=
EXTT10=
EXTT11=
PLAYORDER=
